<?xml version="1.0" encoding="utf-8"?>
<!-- Generator: Adobe Illustrator 23.0.1, SVG Export Plug-In . SVG Version: 6.00 Build 0)  -->
<svg version="1.1" id="Capa_1" xmlns="http://www.w3.org/2000/svg" xmlns:xlink="http://www.w3.org/1999/xlink" x="0px" y="0px"
	 viewBox="0 0 512 512" style="enable-background:new 0 0 512 512;" xml:space="preserve">
<g>
	<g>
		<path d="M36.1,414.7l22.4,66.7H46.2l-4.8-14.8h-23l-4.6,14.8H1.5l22.4-66.7H36.1z M21.7,455.7H38l-8.2-25.8L21.7,455.7z"/>
		<path d="M67.9,481.5V415h28.1c11.5,0,18.5,7.1,18.5,14.7v14.1c0,5.4-3.7,10.5-9.8,13l11.3,24.7h-13l-10.6-23.3H80.1v23.3H67.9z
			 M80.2,426v21.2h14.9c3.9,0,7.2-2.2,7.2-6.2v-8.8c0-4.1-3.4-6.3-7.7-6.3H80.2z"/>
		<path d="M139,481.5v-55.6h-16.5V415h44v10.9h-15.2v55.6H139z"/>
		<path d="M181.3,462.5v4.3c0,5.9,5.5,10.3,12.6,10.3h7.9c7.3,0,13-3.5,13-9.7v-4.7c0-10.2-36.8-12.2-36.8-29.7v-6
			c0-6.7,6.4-12.6,14.9-12.6h8.8c9.6,0,16.6,6.4,16.6,13.6v6h-5.5v-5c0-5.5-5.1-9.7-11.5-9.7h-7.6c-5.6,0-10.2,3.7-10.2,8.5v4.8
			c0,13.1,36.8,14.8,36.8,29.2v6.4c0,8.4-7.7,13.6-18.1,13.6h-8.5c-10.3,0-17.9-6.7-17.9-14.4v-5.1H181.3z"/>
		<path d="M247.7,481.5v-61.6h-18.6V415H271v4.8h-17.8v61.6H247.7z"/>
		<path d="M300.7,414.5l23.4,66.9h-5.6l-7.5-21.3h-26.6l-7.3,21.3h-5.5l23.6-66.9H300.7z M286.2,455.2h23.2l-11.5-33.5L286.2,455.2z
			"/>
		<path d="M343.5,481.5v-61.6h-18.6V415h41.9v4.8H349v61.6H343.5z"/>
		<path d="M379.1,481.5V415h5.5v66.5H379.1z"/>
		<path d="M418.8,482c-9.2,0-15.7-6.7-15.7-14.4v-38.7c0-7.7,6.7-14.4,15.7-14.4H432c9,0,15.6,6.7,15.6,14.4v38.7
			c0,7.7-6.5,14.4-15.6,14.4H418.8z M431.6,477c5.9,0,10.6-4.4,10.6-10.3v-37c0-5.9-4.7-10.3-10.6-10.3h-12.4
			c-5.9,0-10.6,4.4-10.6,10.3v37c0,5.9,4.7,10.3,10.6,10.3H431.6z"/>
		<path d="M466,481.5V415h5.8l33.4,56.8V415h5.5v66.5h-5.8l-33.4-56.8v56.8H466z"/>
	</g>
	<g>
		<path d="M61.9,293.4l32.8,56.7l0,0c6.4,12.8,19.8,21.6,35.1,21.6l0,0l0,0h217.6l-45.1-78.3H61.9z"/>
		<path d="M450.1,293.8c0-7.9-2.4-15.2-6.3-21.2L316.3,50.8C309.8,38.4,296.7,30,281.6,30h-67.4l196.9,341.3l31-53.8
			C448.5,307.2,450.1,302.7,450.1,293.8z"/>
		<polygon points="270.1,237.8 182,85.2 94,237.8 		"/>
	</g>
</g>
</svg>
