<?xml version="1.0" encoding="utf-8"?>
<!-- Generator: Adobe Illustrator 23.0.1, SVG Export Plug-In . SVG Version: 6.00 Build 0)  -->
<svg version="1.1" id="Capa_1" xmlns="http://www.w3.org/2000/svg" xmlns:xlink="http://www.w3.org/1999/xlink" x="0px" y="0px"
	 viewBox="0 0 512 512" style="enable-background:new 0 0 512 512;" xml:space="preserve">
<g>
	<path d="M257,2c-69.3,0-77.9,0.3-105.1,1.5C124.7,4.8,106.2,9.1,90,15.4c-16.8,6.5-31,15.2-45.2,29.4C30.6,59,21.9,73.2,15.4,90
		c-6.3,16.2-10.6,34.8-11.9,61.9C2.3,179.1,2,187.7,2,257c0,69.3,0.3,77.9,1.5,105.1c1.2,27.1,5.5,45.7,11.9,61.9
		c6.5,16.8,15.2,31,29.4,45.2C59,483.4,73.2,492.1,90,498.6c16.2,6.3,34.8,10.6,61.9,11.9c27.2,1.2,35.9,1.5,105.1,1.5
		c69.3,0,77.9-0.3,105.1-1.5c27.1-1.2,45.7-5.5,61.9-11.9c16.8-6.5,31-15.2,45.2-29.4c14.2-14.2,22.9-28.4,29.4-45.2
		c6.3-16.2,10.6-34.8,11.9-61.9c1.2-27.2,1.5-35.9,1.5-105.1c0-69.3-0.3-77.9-1.5-105.1c-1.2-27.1-5.5-45.7-11.9-61.9
		c-6.5-16.8-15.2-31-29.4-45.2C455,30.6,440.8,21.9,424,15.4c-16.2-6.3-34.8-10.6-61.9-11.9C334.9,2.3,326.3,2,257,2z M257,47.9
		c68.1,0,76.2,0.3,103,1.5c24.9,1.1,38.4,5.3,47.3,8.8c11.9,4.6,20.4,10.2,29.3,19.1c8.9,8.9,14.4,17.4,19.1,29.3
		c3.5,9,7.6,22.5,8.8,47.4c1.2,26.9,1.5,35,1.5,103s-0.3,76.2-1.5,103c-1.1,24.9-5.3,38.4-8.8,47.3c-4.6,11.9-10.2,20.4-19.1,29.3
		c-8.9,8.9-17.4,14.4-29.3,19.1c-9,3.5-22.5,7.6-47.4,8.8c-26.9,1.2-34.9,1.5-103,1.5s-76.2-0.3-103-1.5
		c-24.9-1.1-38.4-5.3-47.3-8.8c-11.9-4.6-20.4-10.2-29.3-19.1c-8.9-8.9-14.4-17.4-19.1-29.3c-3.5-9-7.6-22.5-8.8-47.4
		c-1.2-26.9-1.5-35-1.5-103s0.3-76.2,1.5-103c1.1-24.9,5.3-38.4,8.8-47.3c4.6-11.9,10.2-20.4,19.1-29.3c8.9-8.9,17.4-14.4,29.3-19.1
		c9-3.5,22.5-7.6,47.4-8.8C180.8,48.2,188.9,47.9,257,47.9"/>
	<path d="M257,342c-46.9,0-85-38.1-85-85c0-46.9,38.1-85,85-85c46.9,0,85,38.1,85,85C342,303.9,303.9,342,257,342z M257,126.1
		c-72.3,0-130.9,58.6-130.9,130.9c0,72.3,58.6,130.9,130.9,130.9c72.3,0,130.9-58.6,130.9-130.9C387.9,184.7,329.3,126.1,257,126.1
		 M423.7,120.9c0,16.9-13.7,30.6-30.6,30.6c-16.9,0-30.6-13.7-30.6-30.6c0-16.9,13.7-30.6,30.6-30.6C410,90.3,423.7,104,423.7,120.9
		"/>
</g>
</svg>
