<?xml version="1.0" encoding="utf-8"?>
<!-- Generator: Adobe Illustrator 23.0.1, SVG Export Plug-In . SVG Version: 6.00 Build 0)  -->
<svg version="1.1" id="Capa_1" xmlns="http://www.w3.org/2000/svg" xmlns:xlink="http://www.w3.org/1999/xlink" x="0px" y="0px"
	 viewBox="0 0 512 512" style="enable-background:new 0 0 512 512;" xml:space="preserve">
<g>
	<path d="M509.4,115.3c-1.5-8.9-24.5-69.9-83.3-64.7c-47.3,4.2-76.3,46.5-85.8,62.8c-1.7,2.9,0.3,6.5,3.7,6.6l15.9,0.4
		c2.1,0.1,3.9-1.3,4.4-3.3c5.6-22.8,49.8-59.8,60.4-59.8c11.2,0,34.2,7.4,55,48.4c17.2,33.7,1.5,93.3-4.6,113.1
		c-1.1,3.7-6.2,4.2-8,0.8c-8.6-16.6-13.9-63.1-12.7-69.3c0.8-4,2.1-6.5,3-8c0.9-1.4,1.1-3.1,0.3-4.5c-3.5-6.2-11.5-9.1-11.5-9.1
		s0-1.5-35,0c-24.1,1-36.5,43-41.9,69c-1,5-8.3,4.5-8.6-0.6c-1-15.6,0.3-35.3,1-44.2c0.2-2.6-1.9-4.8-4.5-4.7l-21.1,0.5
		c-2.4,0.1-4.3,2-4.3,4.4c0,9.2-2.5,24-5.1,36.7c-1,4.9-8.1,4.4-8.5-0.5c-0.3-3.3-0.5-6.8-0.8-10.7c-1.3-20.6-0.3-126.2,0-148.9
		c0-2.4-1.9-4.3-4.3-4.4l-20.3-0.5c-2.4-0.1-4.4,1.9-4.5,4.3c-0.3,20.7-1.6,108.4-2.9,128.7c-0.8,12.3-6.5,31.8-11.6,47.3
		c-1.6,4.7-8.5,3.6-8.5-1.4v-39.2c0-2.5-2.1-4.4-4.5-4.4l-13.5,0.5c-1.7,0.1-3.2,1.1-3.9,2.7l-16.7,41.6c-1.8,4.6-8.7,3.1-8.4-1.9
		l2.2-41.8c0.1-2.4-1.7-4.4-4.1-4.5c-7-0.4-21.2-1-31.4-0.5c-9.3,0.5-22.6,9.2-30.6,15.1c-2.9,2.1-6.9,0.1-6.9-3.5V32.3
		c0-2.4-2-4.4-4.4-4.4H54.7c-2.5,0-4.5,2.1-4.4,4.7l1.2,17.7c0.2,2.3,2.1,4.1,4.4,4.1h59.3c2.4,0,4.3,1.9,4.4,4.3l2.1,138.8
		c0,1.3-0.5,2.4-1.4,3.3C73.7,242.4,14.6,339.1,4.3,400.2c-10.4,61.7,0,86.3,45.4,87c45.4,0.7,67.7-17.9,83.3-42.4
		c15.6-24.5,16.4-62.5,16.4-62.5l-0.7-181.5c0-1.4,0.7-2.8,1.8-3.6l29.9-21.3c2.9-2.1,6.9,0,6.9,3.6c0,16.1-0.2,50.7-0.7,65.9
		c-0.7,18.5,8.1,18.7,9.5,18.6c0.2,0,0.3,0,0.4,0c2.2,0.1,17.8,0.7,29.5,0c6-0.4,9.2-3.8,10.8-7.2c1-2.1,3.6-3.1,5.7-2.1
		c0.2,0.1,0.4,0.2,0.5,0.2c0.4,0.2,0.9,0.2,1.3,0.2c3.5,0.1,21.3,0.7,31.4,0c6.3-0.4,11.2-7.7,14.2-14c1.4-2.8,5.2-3.3,7.3-0.9
		c0,0,0,0,0.1,0.1c0.8,0.9,1.9,1.4,3.1,1.4c5.6,0.1,24.6,0.6,29.6,0c2.6-0.3,4.9-2.4,6.5-4.7c1.6-2.1,4.7-2.4,6.6-0.5
		c1.8,1.8,3.9,3.5,5.2,4.4c0.7,0.5,1.6,0.8,2.4,0.8c5.5,0.1,26.3,0.6,31.4,0c1.7-0.2,2.9-1.1,3.8-2.2c1.5-2,4.3-2.4,6.2-0.8
		c0.9,0.7,1.8,1.3,2.4,1.7c0.6,0.4,1.3,0.6,2,0.7c4.2,0.3,20.5,1.2,29.5-0.1c4.7-0.7,7.9-5.2,10-9.9c1.3-3,5.3-3.5,7.3-1
		c4.2,5.3,10.5,9,12.9,10.3c0.6,0.3,1.3,0.5,2.1,0.5h25.7C519.8,239.6,510.8,124.3,509.4,115.3z M114.4,434.5
		c-12.6,39.4-50.6,45.4-60.3,45.4s-30.5-2.2-26.8-73.6c3.1-58.9,65.9-144.7,87.8-172.9c2.5-3.2,7.6-1.5,7.7,2.6
		C123.5,275.4,125,401.3,114.4,434.5z M421.2,202.4c0,4.2-4.2,7.5-9.4,7.5h-4.9c-5,0-4.6-4.7-3.8-16.9c0.5-7.8,3.7-12.5,5.9-14.9
		c1.1-1.2,2.8-1.9,4.7-1.9c4.1,0,7.5,2.7,7.5,6V202.4z"/>
</g>
</svg>
